<?xml version="1.0" encoding="UTF-8" standalone="no"?>
<!DOCTYPE svg PUBLIC "-//W3C//DTD SVG 1.1//EN" "http://www.w3.org/Graphics/SVG/1.1/DTD/svg11.dtd">
<svg width="100%" height="100%" viewBox="0 0 250 250" version="1.1" xmlns="http://www.w3.org/2000/svg" xmlns:xlink="http://www.w3.org/1999/xlink" xml:space="preserve" xmlns:serif="http://www.serif.com/" style="fill-rule:evenodd;clip-rule:evenodd;stroke-linejoin:round;stroke-miterlimit:2;">
    <g transform="matrix(5.12,0,0,5.12,0,0)">
        <g>
            <path d="M40.039,3.906L8.789,3.906C6.097,3.906 3.906,6.097 3.906,8.789L3.906,40.039C3.906,42.731 6.097,44.922 8.789,44.922L40.039,44.922C42.731,44.922 44.922,42.731 44.922,40.039L44.922,8.789C44.922,6.097 42.731,3.906 40.039,3.906ZM36.139,21.8C35.917,21.82 35.692,21.834 35.465,21.834C32.903,21.834 30.652,20.517 29.343,18.525L29.343,29.792C29.343,34.391 25.614,38.119 21.016,38.119C16.417,38.119 12.688,34.391 12.688,29.792C12.688,25.193 16.417,21.465 21.016,21.465C21.189,21.465 21.359,21.48 21.53,21.491L21.53,25.595C21.359,25.574 21.191,25.543 21.016,25.543C18.668,25.543 16.766,27.445 16.766,29.793C16.766,32.141 18.668,34.043 21.016,34.043C23.363,34.043 25.437,32.193 25.437,29.846C25.437,29.753 25.478,10.711 25.478,10.711L29.399,10.711C29.769,14.218 32.6,16.985 36.139,17.239L36.139,21.8Z" style="fill:rgb(215,14,14);fill-rule:nonzero;"/>
        </g>
    </g>
</svg>
